<?xml version="1.0" encoding="utf-8"?>
<!-- Generator: Adobe Illustrator 18.1.1, SVG Export Plug-In . SVG Version: 6.00 Build 0)  -->
<svg xmlns="http://www.w3.org/2000/svg" xmlns:xlink="http://www.w3.org/1999/xlink" version="1.1" id="Layer_1" x="0px" y="0px" viewBox="0 0 26 26" enable-background="new 0 0 26 26" xml:space="preserve" width="40px" height="40px">
	<path d="M20.5,7.1l-0.6,0.5c-0.2,0.2-0.3,0.6-0.1,0.8l3.8,4.6l-3.8,4.6c-0.2,0.2-0.2,0.6,0.1,0.8l0.6,0.5c0.2,0.2,0.6,0.2,0.8-0.1  l4.6-5.5c0.1-0.2,0.1-0.4,0-0.6l-4.6-5.5C21.1,7,20.8,6.9,20.5,7.1z"/>
	<path d="M5.5,18.9l0.6-0.5c0.2-0.2,0.3-0.6,0.1-0.8L2.3,13l3.8-4.6c0.2-0.2,0.2-0.6-0.1-0.8L5.5,7.1C5.2,6.9,4.9,7,4.7,7.2l-4.6,5.5  c-0.1,0.2-0.1,0.4,0,0.6l4.6,5.5C4.9,19,5.2,19.1,5.5,18.9z"/>
	<path d="M14.6,4.5L9,21.3C8.9,21.7,9.2,22,9.5,22h0.9c0.3,0,0.6-0.2,0.7-0.5l5.6-16.8C16.8,4.3,16.5,4,16.2,4h-0.9  C15,4,14.7,4.2,14.6,4.5z"/>
</svg>
