<?xml version="1.0" encoding="iso-8859-1"?>
<!-- Generator: Adobe Illustrator 21.1.0, SVG Export Plug-In . SVG Version: 6.00 Build 0)  -->
<svg xmlns="http://www.w3.org/2000/svg" xmlns:xlink="http://www.w3.org/1999/xlink" version="1.1" id="Layer_1" x="0px" y="0px" viewBox="0 0 50 50" style="enable-background:new 0 0 50 50;" xml:space="preserve" width="40px" height="40px">
	<path style="fill:none;stroke-width:2;stroke-linecap:round;stroke-linejoin:round;stroke-miterlimit:10;" d="  M4.1,46h41.7c0.6,0,1.1-0.509,1.1-1.12v-2.748c0-0.611-0.5-1.12-1.1-1.12H4.1C3.5,40.911,3,41.42,3,42.031v2.748  C3,45.491,3.5,46,4.1,46z"/>
	<rect x="36" y="21" style="fill:none;stroke-width:2;stroke-linecap:round;stroke-linejoin:round;stroke-miterlimit:10;" width="6" height="20"/>
	<path style="fill:none;stroke-width:2;stroke-linecap:round;stroke-linejoin:round;stroke-miterlimit:10;" d="M44,17  v2.4c0,0.9-0.7,1.6-1.6,1.6h-6.8c-0.9,0-1.6-0.7-1.6-1.6V17"/>
	<rect x="22" y="21" style="fill:none;stroke-width:2;stroke-linecap:round;stroke-linejoin:round;stroke-miterlimit:10;" width="6" height="20"/>
	<path style="fill:none;stroke-width:2;stroke-linecap:round;stroke-linejoin:round;stroke-miterlimit:10;" d="M30,17  v2.4c0,0.9-0.7,1.6-1.6,1.6h-6.8c-0.9,0-1.6-0.7-1.6-1.6V17"/>
	<rect x="8" y="21" style="fill:none;stroke-width:2;stroke-linecap:round;stroke-linejoin:round;stroke-miterlimit:10;" width="6" height="20"/>
	<path style="fill:none;stroke-width:2;stroke-linecap:round;stroke-linejoin:round;stroke-miterlimit:10;" d="M16,17  v2.4c0,0.9-0.7,1.6-1.6,1.6H7.6C6.7,21,6,20.3,6,19.4V17"/>
	<polygon style="fill:none;stroke-width:2;stroke-linejoin:round;stroke-miterlimit:10;" points="25,3 4,14 4,17   46,17 46,14 "/>
</svg>
