<?xml version="1.0" encoding="iso-8859-1"?>
<!-- Generator: Adobe Illustrator 21.1.0, SVG Export Plug-In . SVG Version: 6.00 Build 0)  -->
<svg xmlns="http://www.w3.org/2000/svg" xmlns:xlink="http://www.w3.org/1999/xlink" version="1.1" id="Layer_1" x="0px" y="0px" viewBox="0 0 50 50" style="enable-background:new 0 0 50 50;" xml:space="preserve" width="40px" height="40px">
	<path style="fill:none;stroke-width:2;stroke-miterlimit:10;" d="M41,5H9C6.791,5,5,6.791,5,9v32  c0,2.209,1.791,4,4,4h32c2.209,0,4-1.791,4-4V9C45,6.791,43.209,5,41,5z"/>
	<line style="fill:none;stroke-width:2;stroke-miterlimit:10;" x1="22.406" y1="13.844" x2="13.844" y2="22.406"/>
	<line style="fill:none;stroke-width:2;stroke-miterlimit:10;" x1="19.156" y1="10.594" x2="10.594" y2="19.156"/>
	<line style="fill:none;stroke-width:2;stroke-miterlimit:10;" x1="39.406" y1="30.844" x2="30.844" y2="39.406"/>
	<line style="fill:none;stroke-width:2;stroke-miterlimit:10;" x1="36.156" y1="27.594" x2="27.594" y2="36.156"/>
	<circle style="fill:none;stroke-width:2;stroke-miterlimit:10;" cx="33.5" cy="16.5" r="6.5"/>
	<circle style="fill:none;stroke-width:2;stroke-miterlimit:10;" cx="33.5" cy="33.5" r="6.5"/>
	<circle style="fill:none;stroke-width:2;stroke-miterlimit:10;" cx="16.5" cy="33.5" r="6.5"/>
	<circle style="fill:none;stroke-width:2;stroke-miterlimit:10;" cx="16.5" cy="16.5" r="6.5"/>
</svg>
