<?xml version="1.0" encoding="iso-8859-1"?>
<!-- Generator: Adobe Illustrator 21.1.0, SVG Export Plug-In . SVG Version: 6.00 Build 0)  -->
<svg xmlns="http://www.w3.org/2000/svg" xmlns:xlink="http://www.w3.org/1999/xlink" version="1.1" id="Layer_1" x="0px" y="0px" viewBox="0 0 50 50" style="enable-background:new 0 0 50 50;" xml:space="preserve" width="40px" height="40px">
	<path d="M32.62,22.602c-0.003,0.002,0.505-0.506,0.505-0.506c0.394-0.394,0.655-0.871,0.783-1.375  c0.15-0.592,0.116-1.221-0.102-1.796c-0.145-0.383-0.372-0.742-0.68-1.051c-0.392-0.392-0.866-0.652-1.366-0.78  c-0.551-0.141-1.134-0.124-1.676,0.054c-0.432,0.141-0.838,0.383-1.181,0.727c0,0-0.509,0.509-0.506,0.506L32.62,22.602z"/>
	<path d="M33.206,22.016l-1.41-1.41L20.332,32.07l-1.917,0.515l0.515-1.917l11.464-11.464l-1.41-1.41l-0.004-0.004L17.326,29.443  c-0.124,0.124-0.213,0.278-0.259,0.448l-1.033,3.85c-0.093,0.345,0.006,0.713,0.259,0.966C16.483,34.897,16.738,35,17,35  c0.087,0,0.174-0.011,0.259-0.034l3.85-1.033c0.17-0.046,0.324-0.135,0.448-0.259L33.21,22.02L33.206,22.016z"/>
	<path style="fill:none;stroke:#000000;stroke-width:2;stroke-linejoin:round;stroke-miterlimit:10;" d="M31,10H19c-0.6,0-1-0.4-1-1  V3c0-0.6,0.4-1,1-1h12c0.6,0,1,0.4,1,1v6C32,9.6,31.6,10,31,10z"/>
	<polygon points="32,7 32,9 38,9 38,41 12,41 12,9 18,9 18,7 10,7 10,43 40,43 40,7 "/>
	<path d="M41,3h-9v2h9c0.551,0,1,0.448,1,1v38c0,0.552-0.449,1-1,1H9c-0.551,0-1-0.448-1-1V6c0-0.552,0.449-1,1-1h9V3H9  C7.346,3,6,4.346,6,6v38c0,1.654,1.346,3,3,3h32c1.388,0,2.559-0.947,2.9-2.229C43.965,44.525,44,44.266,44,44V6  C44,4.346,42.654,3,41,3z"/>
</svg>
